<svg width="36" height="36" viewBox="0 0 36 36" fill="none" xmlns="http://www.w3.org/2000/svg">
<g filter="url(#filter0_d_1_10)">
<g clip-path="url(#clip0_1_10)">
<path d="M18 33C26.8366 33 34 25.8366 34 17C34 8.16344 26.8366 1 18 1C9.16344 1 2 8.16344 2 17C2 25.8366 9.16344 33 18 33Z" fill="#F7C400"/>
<g filter="url(#filter1_d_1_10)">
<path d="M26 24H12.1818C10.9769 24 10 24 10 24" stroke="#291F18" stroke-width="2" stroke-linecap="square" stroke-linejoin="round"/>
<path d="M26 17H12.1818C10.9769 17 10 17 10 17" stroke="#291F18" stroke-width="2" stroke-linecap="square" stroke-linejoin="round"/>
<path d="M26 10L11.4545 10C10.6512 10 10 10 10 10" stroke="#291F18" stroke-width="2" stroke-linecap="square" stroke-linejoin="round"/>
</g>
</g>
</g>
<defs>
<filter id="filter0_d_1_10" x="0" y="0" width="36" height="36" filterUnits="userSpaceOnUse" color-interpolation-filters="sRGB">
<feFlood flood-opacity="0" result="BackgroundImageFix"/>
<feColorMatrix in="SourceAlpha" type="matrix" values="0 0 0 0 0 0 0 0 0 0 0 0 0 0 0 0 0 0 127 0" result="hardAlpha"/>
<feOffset dy="1"/>
<feGaussianBlur stdDeviation="1"/>
<feColorMatrix type="matrix" values="0 0 0 0 0 0 0 0 0 0 0 0 0 0 0 0 0 0 0.25 0"/>
<feBlend mode="normal" in2="BackgroundImageFix" result="effect1_dropShadow_1_10"/>
<feBlend mode="normal" in="SourceGraphic" in2="effect1_dropShadow_1_10" result="shape"/>
</filter>
<filter id="filter1_d_1_10" x="8.94996" y="9" width="18.1" height="17.05" filterUnits="userSpaceOnUse" color-interpolation-filters="sRGB">
<feFlood flood-opacity="0" result="BackgroundImageFix"/>
<feColorMatrix in="SourceAlpha" type="matrix" values="0 0 0 0 0 0 0 0 0 0 0 0 0 0 0 0 0 0 127 0" result="hardAlpha"/>
<feOffset dy="1"/>
<feGaussianBlur stdDeviation="0.025"/>
<feComposite in2="hardAlpha" operator="out"/>
<feColorMatrix type="matrix" values="0 0 0 0 0 0 0 0 0 0 0 0 0 0 0 0 0 0 0.25 0"/>
<feBlend mode="normal" in2="BackgroundImageFix" result="effect1_dropShadow_1_10"/>
<feBlend mode="normal" in="SourceGraphic" in2="effect1_dropShadow_1_10" result="shape"/>
</filter>
<clipPath id="clip0_1_10">
<rect width="32" height="32" fill="white" transform="translate(2 1)"/>
</clipPath>
</defs>
</svg>
