<svg xmlns="http://www.w3.org/2000/svg" xmlns:xlink="http://www.w3.org/1999/xlink" aria-hidden="true" role="img" className="iconify iconify--logos" width="35.93" height="32" preserveAspectRatio="xMidYMid meet" viewBox="0 0 256 228"><path fill="#00D8FF" d="M210.429 145.071c3.718 1.076 7.285 2.29 10.709 3.538c-4.274-10.121-8.5-20.262-12.612-30.405c-4.143-10.2-8.226-20.415-12.226-30.639c-4.01-10.239-7.909-20.493-11.688-30.754c-3.789-10.271-7.453-20.555-10.99-30.846c-3.532-10.28-6.935-20.571-10.204-30.864c-3.269-10.28-6.392-20.566-9.362-30.851c-2.98-10.291-5.787-20.584-8.42-30.875C121.278 4.537 115.134.012 107.166 0h-3.465c-7.988.012-14.157 4.537-18.523 13.588c-2.633 10.291-5.44 20.584-8.42 30.875c-2.97 10.285-6.093 20.571-9.362 30.851c-3.269 10.293-6.672 20.584-10.204 30.864c-3.537 10.291-7.201 20.575-10.99 30.846c-3.779 10.261-7.678 20.515-11.688 30.754c-4 10.224-8.083 20.439-12.226 30.639c-4.112 10.143-8.338 20.284-12.612 30.405c3.424-1.248 7.006-2.462 10.724-3.538c4.262-1.223 8.543-2.291 12.85-3.201c4.32-1.0 8.66-1.846 13.02-2.534c4.36-.687 8.74-1.23 13.14-1.628c4.4-.397 8.82-.603 13.26-.603h3.465c4.44 0 8.86.206 13.26.603c4.4.398 8.78.941 13.14 1.628c4.36.688 8.7 1.534 13.02 2.534c4.307.91 8.588 1.978 12.85 3.201Z"/><path fill="#00D8FF" d="M210.429 145.071c3.718 1.076 7.285 2.29 10.709 3.538c-4.274-10.121-8.5-20.262-12.612-30.405c-4.143-10.2-8.226-20.415-12.226-30.639c-4.01-10.239-7.909-20.493-11.688-30.754c-3.789-10.271-7.453-20.555-10.99-30.846c-3.532-10.28-6.935-20.571-10.204-30.864c-3.269-10.28-6.392-20.566-9.362-30.851c-2.98-10.291-5.787-20.584-8.42-30.875C121.278 4.537 115.134.012 107.166 0h-3.465c-7.988.012-14.157 4.537-18.523 13.588c-2.633 10.291-5.44 20.584-8.42 30.875c-2.97 10.285-6.093 20.571-9.362 30.851c-3.269 10.293-6.672 20.584-10.204 30.864c-3.537 10.291-7.201 20.575-10.99 30.846c-3.779 10.261-7.678 20.515-11.688 30.754c-4 10.224-8.083 20.439-12.226 30.639c-4.112 10.143-8.338 20.284-12.612 30.405c3.424-1.248 7.006-2.462 10.724-3.538c4.262-1.223 8.543-2.291 12.85-3.201c4.32-1.0 8.66-1.846 13.02-2.534c4.36-.687 8.74-1.23 13.14-1.628c4.4-.397 8.82-.603 13.26-.603h3.465c4.44 0 8.86.206 13.26.603c4.4.398 8.78.941 13.14 1.628c4.36.688 8.7 1.534 13.02 2.534c4.307.91 8.588 1.978 12.85 3.201Z"/><path fill="#00D8FF" d="M107.166 0C115.134.012 121.278 4.537 125.614 13.588c2.633 10.291 5.44 20.584 8.42 30.875c2.97 10.285 6.093 20.571 9.362 30.851c3.269 10.293 6.672 20.584 10.204 30.864c3.537 10.291 7.201 20.575 10.99 30.846c3.779 10.261 7.678 20.515 11.688 30.754c4 10.224 8.083 20.439 12.226 30.639c4.112 10.143 8.338 20.284 12.612 30.405c-3.424-1.248-7.006-2.462-10.724-3.538c-4.262-1.223-8.543-2.291-12.85-3.201c-4.32-1.0-8.66-1.846-13.02-2.534c-4.36-.687-8.74-1.23-13.14-1.628c-4.4-.397-8.82-.603-13.26-.603h-3.465c-4.44 0-8.86.206-13.26.603c-4.4.398-8.78.941-13.14 1.628c-4.36.688-8.7 1.534-13.02 2.534c-4.307.91-8.588 1.978-12.85 3.201c-3.718 1.076-7.285 2.29-10.709 3.538c4.274-10.121 8.5-20.262 12.612-30.405c4.143-10.2 8.226-20.415 12.226-30.639c4.01-10.239 7.909-20.493 11.688-30.754c3.789-10.271 7.453-20.555 10.99-30.846c3.532-10.28 6.935-20.571 10.204-30.864c3.269-10.28 6.392-20.566 9.362-30.851c2.98-10.291 5.787-20.584 8.42-30.875C121.278 4.537 115.134.012 107.166 0Z"/><path fill="#00D8FF" d="M107.166 0C115.134.012 121.278 4.537 125.614 13.588c2.633 10.291 5.44 20.584 8.42 30.875c2.97 10.285 6.093 20.571 9.362 30.851c3.269 10.293 6.672 20.584 10.204 30.864c3.537 10.291 7.201 20.575 10.99 30.846c3.779 10.261 7.678 20.515 11.688 30.754c4 10.224 8.083 20.439 12.226 30.639c4.112 10.143 8.338 20.284 12.612 30.405c-3.424-1.248-7.006-2.462-10.724-3.538c-4.262-1.223-8.543-2.291-12.85-3.201c-4.32-1.0-8.66-1.846-13.02-2.534c-4.36-.687-8.74-1.23-13.14-1.628c-4.4-.397-8.82-.603-13.26-.603h-3.465c-4.44 0-8.86.206-13.26.603c-4.4.398-8.78.941-13.14 1.628c-4.36.688-8.7 1.534-13.02 2.534c-4.307.91-8.588 1.978-12.85 3.201c-3.718 1.076-7.285 2.29-10.709 3.538c4.274-10.121 8.5-20.262 12.612-30.405c4.143-10.2 8.226-20.415 12.226-30.639c4.01-10.239 7.909-20.493 11.688-30.754c3.789-10.271 7.453-20.555 10.99-30.846c3.532-10.28 6.935-20.571 10.204-30.864c3.269-10.28 6.392-20.566 9.362-30.851c2.98-10.291 5.787-20.584 8.42-30.875C121.278 4.537 115.134.012 107.166 0Z"/><path fill="#00D8FF" d="M141.583 145.071c3.718 1.076 7.285 2.29 10.709 3.538c-4.274-10.121-8.5-20.262-12.612-30.405c-4.143-10.2-8.226-20.415-12.226-30.639c-4.01-10.239-7.909-20.493-11.688-30.754c-3.789-10.271-7.453-20.555-10.99-30.846c-3.532-10.28-6.935-20.571-10.204-30.864c-3.269-10.28-6.392-20.566-9.362-30.851c-2.98-10.291-5.787-20.584-8.42-30.875C121.278 4.537 115.134.012 107.166 0h-3.465c-7.988.012-14.157 4.537-18.523 13.588c-2.633 10.291-5.44 20.584-8.42 30.875c-2.97 10.285-6.093 20.571-9.362 30.851c-3.269 10.293-6.672 20.584-10.204 30.864c-3.537 10.291-7.201 20.575-10.99 30.846c-3.779 10.261-7.678 20.515-11.688 30.754c-4 10.224-8.083 20.439-12.226 30.639c-4.112 10.143-8.338 20.284-12.612 30.405c3.424-1.248 7.006-2.462 10.724-3.538c4.262-1.223 8.543-2.291 12.85-3.201c4.32-1.0 8.66-1.846 13.02-2.534c4.36-.687 8.74-1.23 13.14-1.628c4.4-.397 8.82-.603 13.26-.603h3.465c4.44 0 8.86.206 13.26.603c4.4.398 8.78.941 13.14 1.628c4.36.688 8.7 1.534 13.02 2.534c4.307.91 8.588 1.978 12.85 3.201Z"/><path fill="#00D8FF" d="M141.583 145.071c3.718 1.076 7.285 2.29 10.709 3.538c-4.274-10.121-8.5-20.262-12.612-30.405c-4.143-10.2-8.226-20.415-12.226-30.639c-4.01-10.239-7.909-20.493-11.688-30.754c-3.789-10.271-7.453-20.555-10.99-30.846c-3.532-10.28-6.935-20.571-10.204-30.864c-3.269-10.28-6.392-20.566-9.362-30.851c-2.98-10.291-5.787-20.584-8.42-30.875C121.278 4.537 115.134.012 107.166 0h-3.465c-7.988.012-14.157 4.537-18.523 13.588c-2.633 10.291-5.44 20.584-8.42 30.875c-2.97 10.285-6.093 20.571-9.362 30.851c-3.269 10.293-6.672 20.584-10.204 30.864c-3.537 10.291-7.201 20.575-10.99 30.846c-3.779 10.261-7.678 20.515-11.688 30.754c-4 10.224-8.083 20.439-12.226 30.639c-4.112 10.143-8.338 20.284-12.612 30.405c3.424-1.248 7.006-2.462 10.724-3.538c4.262-1.223 8.543-2.291 12.85-3.201c4.32-1.0 8.66-1.846 13.02-2.534c4.36-.687 8.74-1.23 13.14-1.628c4.4-.397 8.82-.603 13.26-.603h3.465c4.44 0 8.86.206 13.26.603c4.4.398 8.78.941 13.14 1.628c4.36.688 8.7 1.534 13.02 2.534c4.307.91 8.588 1.978 12.85 3.201Z"/><path fill="#00D8FF" d="M176 145.071c3.718 1.076 7.285 2.29 10.709 3.538c-4.274-10.121-8.5-20.262-12.612-30.405c-4.143-10.2-8.226-20.415-12.226-30.639c-4.01-10.239-7.909-20.493-11.688-30.754c-3.789-10.271-7.453-20.555-10.99-30.846c-3.532-10.28-6.935-20.571-10.204-30.864c-3.269-10.28-6.392-20.566-9.362-30.851c-2.98-10.291-5.787-20.584-8.42-30.875C121.278 4.537 115.134.012 107.166 0h-3.465c-7.988.012-14.157 4.537-18.523 13.588c-2.633 10.291-5.44 20.584-8.42 30.875c-2.97 10.285-6.093 20.571-9.362 30.851c-3.269 10.293-6.672 20.584-10.204 30.864c-3.537 10.291-7.201 20.575-10.99 30.846c-3.779 10.261-7.678 20.515-11.688 30.754c-4 10.224-8.083 20.439-12.226 30.639c-4.112 10.143-8.338 20.284-12.612 30.405c3.424-1.248 7.006-2.462 10.724-3.538c4.262-1.223 8.543-2.291 12.85-3.201c4.32-1.0 8.66-1.846 13.02-2.534c4.36-.687 8.74-1.23 13.14-1.628c4.4-.397 8.82-.603 13.26-.603h3.465c4.44 0 8.86.206 13.26.603c4.4.398 8.78.941 13.14 1.628c4.36.688 8.7 1.534 13.02 2.534c4.307.91 8.588 1.978 12.85 3.201Z"/><path fill="#00D8FF" d="M176 145.071c3.718 1.076 7.285 2.29 10.709 3.538c-4.274-10.121-8.5-20.262-12.612-30.405c-4.143-10.2-8.226-20.415-12.226-30.639c-4.01-10.239-7.909-20.493-11.688-30.754c-3.789-10.271-7.453-20.555-10.99-30.846c-3.532-10.28-6.935-20.571-10.204-30.864c-3.269-10.28-6.392-20.566-9.362-30.851c-2.98-10.291-5.787-20.584-8.42-30.875C121.278 4.537 115.134.012 107.166 0h-3.465c-7.988.012-14.157 4.537-18.523 13.588c-2.633 10.291-5.44 20.584-8.42 30.875c-2.97 10.285-6.093 20.571-9.362 30.851c-3.269 10.293-6.672 20.584-10.204 30.864c-3.537 10.291-7.201 20.575-10.99 30.846c-3.779 10.261-7.678 20.515-11.688 30.754c-4 10.224-8.083 20.439-12.226 30.639c-4.112 10.143-8.338 20.284-12.612 30.405c3.424-1.248 7.006-2.462 10.724-3.538c4.262-1.223 8.543-2.291 12.85-3.201c4.32-1.0 8.66-1.846 13.02-2.534c4.36-.687 8.74-1.23 13.14-1.628c4.4-.397 8.82-.603 13.26-.603h3.465c4.44 0 8.86.206 13.26.603c4.4.398 8.78.941 13.14 1.628c4.36.688 8.7 1.534 13.02 2.534c4.307.91 8.588 1.978 12.85 3.201Z"/><path fill="#00D8FF" d="M107.166 0C115.134.012 121.278 4.537 125.614 13.588c2.633 10.291 5.44 20.584 8.42 30.875c2.97 10.285 6.093 20.571 9.362 30.851c3.269 10.293 6.672 20.584 10.204 30.864c3.537 10.291 7.201 20.575 10.99 30.846c3.779 10.261 7.678 20.515 11.688 30.754c4 10.224 8.083 20.439 12.226 30.639c4.112 10.143 8.338 20.284 12.612 30.405c-3.424-1.248-7.006-2.462-10.724-3.538c-4.262-1.223-8.543-2.291-12.85-3.201c-4.32-1.0-8.66-1.846-13.02-2.534c-4.36-.687-8.74-1.23-13.14-1.628c-4.4-.397-8.82-.603-13.26-.603h-3.465c-4.44 0-8.86.206-13.26.603c-4.4.398-8.78.941-13.14 1.628c-4.36.688-8.7 1.534-13.02 2.534c-4.307.91-8.588 1.978-12.85 3.201c-3.718 1.076-7.285 2.29-10.709 3.538c4.274-10.121 8.5-20.262 12.612-30.405c4.143-10.2 8.226-20.415 12.226-30.639c4.01-10.239 7.909-20.493 11.688-30.754c3.789-10.271 7.453-20.555 10.99-30.846c3.532-10.28 6.935-20.571 10.204-30.864c3.269-10.28 6.392-20.566 9.362-30.851c2.98-10.291 5.787-20.584 8.42-30.875C121.278 4.537 115.134.012 107.166 0Z"/><path fill="#00D8FF" d="M107.166 0C115.134.012 121.278 4.537 125.614 13.588c2.633 10.291 5.44 20.584 8.42 30.875c2.97 10.285 6.093 20.571 9.362 30.851c3.269 10.293 6.672 20.584 10.204 30.864c3.537 10.291 7.201 20.575 10.99 30.846c3.779 10.261 7.678 20.515 11.688 30.754c4 10.224 8.083 20.439 12.226 30.639c4.112 10.143 8.338 20.284 12.612 30.405c-3.424-1.248-7.006-2.462-10.724-3.538c-4.262-1.223-8.543-2.291-12.85-3.201c-4.32-1.0-8.66-1.846-13.02-2.534c-4.36-.687-8.74-1.23-13.14-1.628c-4.4-.397-8.82-.603-13.26-.603h-3.465c-4.44 0-8.86.206-13.26.603c-4.4.398-8.78.941-13.14 1.628c-4.36.688-8.7 1.534-13.02 2.534c-4.307.91-8.588 1.978-12.85 3.201c-3.718 1.076-7.285 2.29-10.709 3.538c4.274-10.121 8.5-20.262 12.612-30.405c4.143-10.2 8.226-20.415 12.226-30.639c4.01-10.239 7.909-20.493 11.688-30.754c3.789-10.271 7.453-20.555 10.99-30.846c3.532-10.28 6.935-20.571 10.204-30.864c3.269-10.28 6.392-20.566 9.362-30.851c2.98-10.291 5.787-20.584 8.42-30.875C121.278 4.537 115.134.012 107.166 0Z"/><path fill="#00D8FF" d="M72.749 145.071c3.718 1.076 7.285 2.29 10.709 3.538c-4.274-10.121-8.5-20.262-12.612-30.405c-4.143-10.2-8.226-20.415-12.226-30.639c-4.01-10.239-7.909-20.493-11.688-30.754c-3.789-10.271-7.453-20.555-10.99-30.846c-3.532-10.28-6.935-20.571-10.204-30.864c-3.269-10.28-6.392-20.566-9.362-30.851c-2.98-10.291-5.787-20.584-8.42-30.875C121.278 4.537 115.134.012 107.166 0h-3.465c-7.988.012-14.157 4.537-18.523 13.588c-2.633 10.291-5.44 20.584-8.42 30.875c-2.97 10.285-6.093 20.571-9.362 30.851c-3.269 10.293-6.672 20.584-10.204 30.864c-3.537 10.291-7.201 20.575-10.99 30.846c-3.779 10.261-7.678 20.515-11.688 30.754c-4 10.224-8.083 20.439-12.226 30.639c-4.112 10.143-8.338 20.284-12.612 30.405c3.424-1.248 7.006-2.462 10.724-3.538c4.262-1.223 8.543-2.291 12.85-3.201c4.32-1.0 8.66-1.846 13.02-2.534c4.36-.687 8.74-1.23 13.14-1.628c4.4-.397 8.82-.603 13.26-.603h3.465c4.44 0 8.86.206 13.26.603c4.4.398 8.78.941 13.14 1.628c4.36.688 8.7 1.534 13.02 2.534c4.307.91 8.588 1.978 12.85 3.201Z"/><path fill="#00D8FF" d="M72.749 145.071c3.718 1.076 7.285 2.29 10.709 3.538c-4.274-10.121-8.5-20.262-12.612-30.405c-4.143-10.2-8.226-20.415-12.226-30.639c-4.01-10.239-7.909-20.493-11.688-30.754c-3.789-10.271-7.453-20.555-10.99-30.846c-3.532-10.28-6.935-20.571-10.204-30.864c-3.269-10.28-6.392-20.566-9.362-30.851c-2.98-10.291-5.787-20.584-8.42-30.875C121.278 4.537 115.134.012 107.166 0h-3.465c-7.988.012-14.157 4.537-18.523 13.588c-2.633 10.291-5.44 20.584-8.42 30.875c-2.97 10.285-6.093 20.571-9.362 30.851c-3.269 10.293-6.672 20.584-10.204 30.864c-3.537 10.291-7.201 20.575-10.99 30.846c-3.779 10.261-7.678 20.515-11.688 30.754c-4 10.224-8.083 20.439-12.226 30.639c-4.112 10.143-8.338 20.284-12.612 30.405c3.424-1.248 7.006-2.462 10.724-3.538c4.262-1.223 8.543-2.291 12.85-3.201c4.32-1.0 8.66-1.846 13.02-2.534c4.36-.687 8.74-1.23 13.14-1.628c4.4-.397 8.82-.603 13.26-.603h3.465c4.44 0 8.86.206 13.26.603c4.4.398 8.78.941 13.14 1.628c4.36.688 8.7 1.534 13.02 2.534c4.307.91 8.588 1.978 12.85 3.201Z"/><path fill="#00D8FF" d="M38.332 145.071c3.718 1.076 7.285 2.29 10.709 3.538c-4.274-10.121-8.5-20.262-12.612-30.405c-4.143-10.2-8.226-20.415-12.226-30.639c-4.01-10.239-7.909-20.493-11.688-30.754c-3.789-10.271-7.453-20.555-10.99-30.846c-3.532-10.28-6.935-20.571-10.204-30.864c-3.269-10.28-6.392-20.566-9.362-30.851c-2.98-10.291-5.787-20.584-8.42-30.875C121.278 4.537 115.134.012 107.166 0h-3.465c-7.988.012-14.157 4.537-18.523 13.588c-2.633 10.291-5.44 20.584-8.42 30.875c-2.97 10.285-6.093 20.571-9.362 30.851c-3.269 10.293-6.672 20.584-10.204 30.864c-3.537 10.291-7.201 20.575-10.99 30.846c-3.779 10.261-7.678 20.515-11.688 30.754c-4 10.224-8.083 20.439-12.226 30.639c-4.112 10.143-8.338 20.284-12.612 30.405c3.424-1.248 7.006-2.462 10.724-3.538c4.262-1.223 8.543-2.291 12.85-3.201c4.32-1.0 8.66-1.846 13.02-2.534c4.36-.687 8.74-1.23 13.14-1.628c4.4-.397 8.82-.603 13.26-.603h3.465c4.44 0 8.86.206 13.26.603c4.4.398 8.78.941 13.14 1.628c4.36.688 8.7 1.534 13.02 2.534c4.307.91 8.588 1.978 12.85 3.201Z"/><path fill="#00D8FF" d="M38.332 145.071c3.718 1.076 7.285 2.29 10.709 3.538c-4.274-10.121-8.5-20.262-12.612-30.405c-4.143-10.2-8.226-20.415-12.226-30.639c-4.01-10.239-7.909-20.493-11.688-30.754c-3.789-10.271-7.453-20.555-10.99-30.846c-3.532-10.28-6.935-20.571-10.204-30.864c-3.269-10.28-6.392-20.566-9.362-30.851c-2.98-10.291-5.787-20.584-8.42-30.875C121.278 4.537 115.134.012 107.166 0h-3.465c-7.988.012-14.157 4.537-18.523 13.588c-2.633 10.291-5.44 20.584-8.42 30.875c-2.97 10.285-6.093 20.571-9.362 30.851c-3.269 10.293-6.672 20.584-10.204 30.864c-3.537 10.291-7.201 20.575-10.99 30.846c-3.779 10.261-7.678 20.515-11.688 30.754c-4 10.224-8.083 20.439-12.226 30.639c-4.112 10.143-8.338 20.284-12.612 30.405c3.424-1.248 7.006-2.462 10.724-3.538c4.262-1.223 8.543-2.291 12.85-3.201c4.32-1.0 8.66-1.846 13.02-2.534c4.36-.687 8.74-1.23 13.14-1.628c4.4-.397 8.82-.603 13.26-.603h3.465c4.44 0 8.86.206 13.26.603c4.4.398 8.78.941 13.14 1.628c4.36.688 8.7 1.534 13.02 2.534c4.307.91 8.588 1.978 12.85 3.201Z"/><path fill="#00D8FF" d="M3.915 145.071c3.718 1.076 7.285 2.29 10.709 3.538c-4.274-10.121-8.5-20.262-12.612-30.405c-4.143-10.2-8.226-20.415-12.226-30.639c-4.01-10.239-7.909-20.493-11.688-30.754c-3.789-10.271-7.453-20.555-10.99-30.846c-3.532-10.28-6.935-20.571-10.204-30.864c-3.269-10.28-6.392-20.566-9.362-30.851c-2.98-10.291-5.787-20.584-8.42-30.875C121.278 4.537 115.134.012 107.166 0h-3.465c-7.988.012-14.157 4.537-18.523 13.588c-2.633 10.291-5.44 20.584-8.42 30.875c-2.97 10.285-6.093 20.571-9.362 30.851c-3.269 10.293-6.672 20.584-10.204 30.864c-3.537 10.291-7.201 20.575-10.99 30.846c-3.779 10.261-7.678 20.515-11.688 30.754c-4 10.224-8.083 20.439-12.226 30.639c-4.112 10.143-8.338 20.284-12.612 30.405c3.424-1.248 7.006-2.462 10.724-3.538c4.262-1.223 8.543-2.291 12.85-3.201c4.32-1.0 8.66-1.846 13.02-2.534c4.36-.687 8.74-1.23 13.14-1.628c4.4-.397 8.82-.603 13.26-.603h3.465c4.44 0 8.86.206 13.26.603c4.4.398 8.78.941 13.14 1.628c4.36.688 8.7 1.534 13.02 2.534c4.307.91 8.588 1.978 12.85 3.201Z"/><path fill="#00D8FF" d="M3.915 145.071c3.718 1.076 7.285 2.29 10.709 3.538c-4.274-10.121-8.5-20.262-12.612-30.405c-4.143-10.2-8.226-20.415-12.226-30.639c-4.01-10.239-7.909-20.493-11.688-30.754c-3.789-10.271-7.453-20.555-10.99-30.846c-3.532-10.28-6.935-20.571-10.204-30.864c-3.269-10.28-6.392-20.566-9.362-30.851c-2.98-10.291-5.787-20.584-8.42-30.875C121.278 4.537 115.134.012 107.166 0h-3.465c-7.988.012-14.157 4.537-18.523 13.588c-2.633 10.291-5.44 20.584-8.42 30.875c-2.97 10.285-6.093 20.571-9.362 30.851c-3.269 10.293-6.672 20.584-10.204 30.864c-3.537 10.291-7.201 20.575-10.99 30.846c-3.779 10.261-7.678 20.515-11.688 30.754c-4 10.224-8.083 20.439-12.226 30.639c-4.112 10.143-8.338 20.284-12.612 30.405c3.424-1.248 7.006-2.462 10.724-3.538c4.262-1.223 8.543-2.291 12.85-3.201c4.32-1.0 8.66-1.846 13.02-2.534c4.36-.687 8.74-1.23 13.14-1.628c4.4-.397 8.82-.603 13.26-.603h3.465c4.44 0 8.86.206 13.26.603c4.4.398 8.78.941 13.14 1.628c4.36.688 8.7 1.534 13.02 2.534c4.307.91 8.588 1.978 12.85 3.201Z"/></svg>